<?xml version="1.0" encoding="utf-8"?>
<svg width="475" height="557" viewBox="0 0 475 557" xmlns="http://www.w3.org/2000/svg">
<rect id="frame" x="0" y="0" width="475" height="557" fill="#f7f7f7" stroke="none" stroke-width="0"/>

<!-- Association CREER -->
<g>
	<line x1="75" y1="262" x2="212" y2="34" stroke="#4393c3" stroke-width="2"/>
	<text x="114.94" y="152" fill="#b2182b" font-family="Verdana" font-size="12">1,1</text>
	<line x1="308" y1="135" x2="212" y2="34" stroke="#4393c3" stroke-width="2"/>
	<text x="245" y="107.31" fill="#b2182b" font-family="Verdana" font-size="12">0,N</text>
	<g>
		<path d="M226 9 a14 14 90 0 1 14 14 V34 h-56 V23 a14 14 90 0 1 14 -14" fill="#92c5de" stroke="#92c5de" stroke-width="0"/>
		<path d="M240 34 v11 a14 14 90 0 1 -14 14 H198 a14 14 90 0 1 -14 -14 V34 H56" fill="#d1e5f0" stroke="#d1e5f0" stroke-width="0"/>
		<rect x="184" y="9" width="56" height="50" fill="none" rx="14" stroke="#4393c3" stroke-width="2"/>
		<line x1="184" y1="34" x2="240" y2="34" stroke="#4393c3" stroke-width="1"/>
		<text x="192" y="26.75" fill="#000" font-family="Verdana" font-size="12">CREER</text>
	</g>
</g>

<!-- Association AJOUTER_EN_AMI -->
<g>
	<path d="M308 135 C306.39 58.01 338.06 24.35 403 34" fill="none" stroke="#4393c3" stroke-width="2"/>
	<text x="323.23" y="76" fill="#b2182b" font-family="Verdana" font-size="12">0,N</text>
	<path d="M308 135 C384.94 131.89 416.61 98.23 403 34" fill="none" stroke="#4393c3" stroke-width="2"/>
	<text x="349" y="116.77" fill="#b2182b" font-family="Verdana" font-size="12">0,N</text>
	<g>
		<path d="M452 9 a14 14 90 0 1 14 14 V34 h-126 V23 a14 14 90 0 1 14 -14" fill="#92c5de" stroke="#92c5de" stroke-width="0"/>
		<path d="M466 34 v11 a14 14 90 0 1 -14 14 H354 a14 14 90 0 1 -14 -14 V34 H126" fill="#d1e5f0" stroke="#d1e5f0" stroke-width="0"/>
		<rect x="340" y="9" width="126" height="50" fill="none" rx="14" stroke="#4393c3" stroke-width="2"/>
		<line x1="340" y1="34" x2="466" y2="34" stroke="#4393c3" stroke-width="1"/>
		<text x="348" y="26.75" fill="#000" font-family="Verdana" font-size="12">AJOUTER_EN_AMI</text>
		<text x="347" y="51.8" fill="#000" font-family="Verdana" font-size="12">status</text>
	</g>
</g>

<!-- Association JOUER -->
<g>
	<line x1="75" y1="262" x2="212" y2="135" stroke="#4393c3" stroke-width="2"/>
	<text x="146" y="211.13" fill="#b2182b" font-family="Verdana" font-size="12">1,N</text>
	<line x1="308" y1="135" x2="212" y2="135" stroke="#4393c3" stroke-width="2"/>
	<text x="245" y="152" fill="#b2182b" font-family="Verdana" font-size="12">0,N</text>
	<g>
		<path d="M226 101 a14 14 90 0 1 14 14 V126 h-56 V115 a14 14 90 0 1 14 -14" fill="#92c5de" stroke="#92c5de" stroke-width="0"/>
		<path d="M240 126 v29 a14 14 90 0 1 -14 14 H198 a14 14 90 0 1 -14 -14 V126 H56" fill="#d1e5f0" stroke="#d1e5f0" stroke-width="0"/>
		<rect x="184" y="101" width="56" height="68" fill="none" rx="14" stroke="#4393c3" stroke-width="2"/>
		<line x1="184" y1="126" x2="240" y2="126" stroke="#4393c3" stroke-width="1"/>
		<text x="192" y="118.75" fill="#000" font-family="Verdana" font-size="12">JOUER</text>
		<text x="191" y="143.8" fill="#000" font-family="Verdana" font-size="12">team</text>
		<text x="191" y="160.8" fill="#000" font-family="Verdana" font-size="12">status</text>
	</g>
</g>

<!-- Association DISCUTER -->
<g>
	<line x1="75" y1="262" x2="212" y2="262" stroke="#4393c3" stroke-width="2"/>
	<text x="146" y="254" fill="#b2182b" font-family="Verdana" font-size="12">0,N</text>
	<line x1="308" y1="135" x2="212" y2="262" stroke="#4393c3" stroke-width="2"/>
	<text x="245" y="180.32" fill="#b2182b" font-family="Verdana" font-size="12">0,N</text>
	<g>
		<path d="M237 228 a14 14 90 0 1 14 14 V253 h-78 V242 a14 14 90 0 1 14 -14" fill="#92c5de" stroke="#92c5de" stroke-width="0"/>
		<path d="M251 253 v29 a14 14 90 0 1 -14 14 H187 a14 14 90 0 1 -14 -14 V253 H78" fill="#d1e5f0" stroke="#d1e5f0" stroke-width="0"/>
		<rect x="173" y="228" width="78" height="68" fill="none" rx="14" stroke="#4393c3" stroke-width="2"/>
		<line x1="173" y1="253" x2="251" y2="253" stroke="#4393c3" stroke-width="1"/>
		<text x="180" y="245.75" fill="#000" font-family="Verdana" font-size="12">DISCUTER</text>
		<text x="180" y="270.8" fill="#000" font-family="Verdana" font-size="12">message</text>
		<text x="180" y="287.8" fill="#000" font-family="Verdana" font-size="12">date</text>
	</g>
</g>

<!-- Association AVOIR -->
<g>
	<line x1="403" y1="506" x2="403" y2="262" stroke="#4393c3" stroke-width="2"/>
	<text x="408" y="456" fill="#b2182b" font-family="Verdana" font-size="12">0,1</text>
	<line x1="308" y1="135" x2="403" y2="262" stroke="#4393c3" stroke-width="2"/>
	<text x="349" y="180.77" fill="#b2182b" font-family="Verdana" font-size="12">0,1</text>
	<g>
		<path d="M416 237 a14 14 90 0 1 14 14 V262 h-54 V251 a14 14 90 0 1 14 -14" fill="#92c5de" stroke="#92c5de" stroke-width="0"/>
		<path d="M430 262 v11 a14 14 90 0 1 -14 14 H390 a14 14 90 0 1 -14 -14 V262 H54" fill="#d1e5f0" stroke="#d1e5f0" stroke-width="0"/>
		<rect x="376" y="237" width="54" height="50" fill="none" rx="14" stroke="#4393c3" stroke-width="2"/>
		<line x1="376" y1="262" x2="430" y2="262" stroke="#4393c3" stroke-width="1"/>
		<text x="383" y="254.75" fill="#000" font-family="Verdana" font-size="12">AVOIR</text>
	</g>
</g>

<!-- Association AVOIR2 -->
<g>
	<line x1="75" y1="262" x2="75" y2="414" stroke="#4393c3" stroke-width="2"/>
	<text x="49" y="381" fill="#b2182b" font-family="Verdana" font-size="12">1,1</text>
	<line x1="75" y1="506" x2="75" y2="414" stroke="#4393c3" stroke-width="2"/>
	<text x="48" y="464" fill="#b2182b" font-family="Verdana" font-size="12">0,N</text>
	<g>
		<path d="M88 389 a14 14 90 0 1 14 14 V414 h-54 V403 a14 14 90 0 1 14 -14" fill="#92c5de" stroke="#92c5de" stroke-width="0"/>
		<path d="M102 414 v11 a14 14 90 0 1 -14 14 H62 a14 14 90 0 1 -14 -14 V414 H54" fill="#d1e5f0" stroke="#d1e5f0" stroke-width="0"/>
		<rect x="48" y="389" width="54" height="50" fill="none" rx="14" stroke="#4393c3" stroke-width="2"/>
		<line x1="48" y1="414" x2="102" y2="414" stroke="#4393c3" stroke-width="1"/>
		<text x="55" y="406.75" fill="#000" font-family="Verdana" font-size="12">AVOIR</text>
	</g>
</g>

<!-- Association MAITRISER -->
<g>
	<line x1="75" y1="506" x2="308" y2="414" stroke="#4393c3" stroke-width="2"/>
	<text x="106" y="479.64" fill="#b2182b" font-family="Verdana" font-size="12">0,N</text>
	<line x1="308" y1="135" x2="308" y2="414" stroke="#4393c3" stroke-width="2"/>
	<text x="313" y="203" fill="#b2182b" font-family="Verdana" font-size="12">0,N</text>
	<line x1="75" y1="262" x2="308" y2="414" stroke="#4393c3" stroke-width="2"/>
	<text x="146" y="302.07" fill="#b2182b" font-family="Verdana" font-size="12">0,1</text>
	<g>
		<path d="M336 389 a14 14 90 0 1 14 14 V414 h-84 V403 a14 14 90 0 1 14 -14" fill="#92c5de" stroke="#92c5de" stroke-width="0"/>
		<path d="M350 414 v11 a14 14 90 0 1 -14 14 H280 a14 14 90 0 1 -14 -14 V414 H84" fill="#d1e5f0" stroke="#d1e5f0" stroke-width="0"/>
		<rect x="266" y="389" width="84" height="50" fill="none" rx="14" stroke="#4393c3" stroke-width="2"/>
		<line x1="266" y1="414" x2="350" y2="414" stroke="#4393c3" stroke-width="1"/>
		<text x="274" y="406.75" fill="#000" font-family="Verdana" font-size="12">MAITRISER</text>
		<text x="273" y="431.8" fill="#000" font-family="Verdana" font-size="12">rating</text>
	</g>
</g>

<!-- Association DETENIR -->
<g>
	<line x1="403" y1="506" x2="212" y2="506" stroke="#4393c3" stroke-width="2"/>
	<text x="350" y="523" fill="#b2182b" font-family="Verdana" font-size="12">0,N</text>
	<line x1="75" y1="506" x2="212" y2="506" stroke="#4393c3" stroke-width="2"/>
	<text x="106" y="523" fill="#b2182b" font-family="Verdana" font-size="12">1,N</text>
	<g>
		<path d="M233 481 a14 14 90 0 1 14 14 V506 h-70 V495 a14 14 90 0 1 14 -14" fill="#92c5de" stroke="#92c5de" stroke-width="0"/>
		<path d="M247 506 v11 a14 14 90 0 1 -14 14 H191 a14 14 90 0 1 -14 -14 V506 H70" fill="#d1e5f0" stroke="#d1e5f0" stroke-width="0"/>
		<rect x="177" y="481" width="70" height="50" fill="none" rx="14" stroke="#4393c3" stroke-width="2"/>
		<line x1="177" y1="506" x2="247" y2="506" stroke="#4393c3" stroke-width="1"/>
		<text x="185" y="498.75" fill="#000" font-family="Verdana" font-size="12">DETENIR</text>
	</g>
</g>

<!-- Entity USER -->
<g>
	<g>
		<rect x="272" y="84" width="72" height="25" fill="#f4a582" stroke="#f4a582" stroke-width="0" opacity="1"/>
		<rect x="272" y="109" width="72" height="77" fill="#fddbc7" stroke="#fddbc7" stroke-width="0" opacity="1"/>
		<rect x="272" y="84" width="72" height="102" fill="none" stroke="#d6604d" stroke-width="2" opacity="1"/>
		<line x1="272" y1="109" x2="344" y2="109" stroke="#d6604d" stroke-width="1"/>
	</g>
	<text x="291" y="101.75" fill="#000" font-family="Verdana" font-size="12">USER</text>
	<text x="277" y="126.8" fill="#000" font-family="Verdana" font-size="12">ref</text>
	<line x1="277" y1="129" x2="294" y2="129" stroke="#000" stroke-width="1"/>
	<text x="277" y="143.8" fill="#000" font-family="Verdana" font-size="12">username</text>
	<text x="277" y="160.8" fill="#000" font-family="Verdana" font-size="12">email</text>
	<text x="277" y="177.8" fill="#000" font-family="Verdana" font-size="12">password</text>
</g>

<!-- Entity EVENT -->
<g>
	<g>
		<rect x="9" y="160" width="132" height="25" fill="#f4a582" stroke="#f4a582" stroke-width="0" opacity="1"/>
		<rect x="9" y="185" width="132" height="179" fill="#fddbc7" stroke="#fddbc7" stroke-width="0" opacity="1"/>
		<rect x="9" y="160" width="132" height="204" fill="none" stroke="#d6604d" stroke-width="2" opacity="1"/>
		<line x1="9" y1="185" x2="141" y2="185" stroke="#d6604d" stroke-width="1"/>
	</g>
	<text x="55" y="177.75" fill="#000" font-family="Verdana" font-size="12">EVENT</text>
	<text x="14" y="202.8" fill="#000" font-family="Verdana" font-size="12">ref</text>
	<line x1="14" y1="205" x2="31" y2="205" stroke="#000" stroke-width="1"/>
	<text x="14" y="219.8" fill="#000" font-family="Verdana" font-size="12">date</text>
	<text x="14" y="236.8" fill="#000" font-family="Verdana" font-size="12">location</text>
	<text x="14" y="253.8" fill="#000" font-family="Verdana" font-size="12">duration</text>
	<text x="14" y="270.8" fill="#000" font-family="Verdana" font-size="12">nb_team</text>
	<text x="14" y="287.8" fill="#000" font-family="Verdana" font-size="12">nb_max_participant</text>
	<text x="14" y="304.8" fill="#000" font-family="Verdana" font-size="12">status</text>
	<text x="14" y="321.8" fill="#000" font-family="Verdana" font-size="12">winner_team</text>
	<text x="14" y="338.8" fill="#000" font-family="Verdana" font-size="12">score_team_1</text>
	<text x="14" y="355.8" fill="#000" font-family="Verdana" font-size="12">score_team_2</text>
</g>

<!-- Entity SPORT -->
<g>
	<g>
		<rect x="49" y="472" width="52" height="25" fill="#f4a582" stroke="#f4a582" stroke-width="0" opacity="1"/>
		<rect x="49" y="497" width="52" height="43" fill="#fddbc7" stroke="#fddbc7" stroke-width="0" opacity="1"/>
		<rect x="49" y="472" width="52" height="68" fill="none" stroke="#d6604d" stroke-width="2" opacity="1"/>
		<line x1="49" y1="497" x2="101" y2="497" stroke="#d6604d" stroke-width="1"/>
	</g>
	<text x="54" y="489.75" fill="#000" font-family="Verdana" font-size="12">SPORT</text>
	<text x="54" y="514.8" fill="#000" font-family="Verdana" font-size="12">ref</text>
	<line x1="54" y1="517" x2="71" y2="517" stroke="#000" stroke-width="1"/>
	<text x="54" y="531.8" fill="#000" font-family="Verdana" font-size="12">name</text>
</g>

<!-- Entity IMAGE -->
<g>
	<g>
		<rect x="377" y="464" width="52" height="25" fill="#f4a582" stroke="#f4a582" stroke-width="0" opacity="1"/>
		<rect x="377" y="489" width="52" height="59" fill="#fddbc7" stroke="#fddbc7" stroke-width="0" opacity="1"/>
		<rect x="377" y="464" width="52" height="84" fill="none" stroke="#d6604d" stroke-width="2" opacity="1"/>
		<line x1="377" y1="489" x2="429" y2="489" stroke="#d6604d" stroke-width="1"/>
	</g>
	<text x="383" y="481.75" fill="#000" font-family="Verdana" font-size="12">IMAGE</text>
	<text x="382" y="506.8" fill="#000" font-family="Verdana" font-size="12">ref</text>
	<line x1="382" y1="509" x2="399" y2="509" stroke="#000" stroke-width="1"/>
	<text x="382" y="523.8" fill="#000" font-family="Verdana" font-size="12">title</text>
	<text x="382" y="540.8" fill="#000" font-family="Verdana" font-size="12">url</text>
</g>
</svg>