<?xml version="1.0" encoding="utf-8"?>
<svg width="544" height="500" viewBox="0 0 544 500" xmlns="http://www.w3.org/2000/svg">
<rect id="frame" x="0" y="0" width="544" height="500" fill="#f7f7f7" stroke="none" stroke-width="0"/>

<!-- Association DETENIR -->
<g>
	<line x1="472" y1="51" x2="303" y2="51" stroke="#4393c3" stroke-width="2"/>
	<text x="419" y="68" fill="#b2182b" font-family="Verdana" font-size="12">0,N</text>
	<line x1="201" y1="51" x2="303" y2="51" stroke="#4393c3" stroke-width="2"/>
	<text x="232" y="43" fill="#b2182b" font-family="Verdana" font-size="12">1,N</text>
	<g>
		<path d="M324 26 a14 14 90 0 1 14 14 V51 h-70 V40 a14 14 90 0 1 14 -14" fill="#92c5de" stroke="#92c5de" stroke-width="0"/>
		<path d="M338 51 v11 a14 14 90 0 1 -14 14 H282 a14 14 90 0 1 -14 -14 V51 H70" fill="#d1e5f0" stroke="#d1e5f0" stroke-width="0"/>
		<rect x="268" y="26" width="70" height="50" fill="none" rx="14" stroke="#4393c3" stroke-width="2"/>
		<line x1="268" y1="51" x2="338" y2="51" stroke="#4393c3" stroke-width="1"/>
		<text x="276" y="43.75" fill="#000" font-family="Verdana" font-size="12">DETENIR</text>
	</g>
</g>

<!-- Association AVOIR2 -->
<g>
	<line x1="75" y1="296" x2="75" y2="144" stroke="#4393c3" stroke-width="2"/>
	<text x="49" y="186" fill="#b2182b" font-family="Verdana" font-size="12">1,1</text>
	<line x1="201" y1="51" x2="75" y2="144" stroke="#4393c3" stroke-width="2"/>
	<text x="148" y="67.77" fill="#b2182b" font-family="Verdana" font-size="12">0,N</text>
	<g>
		<path d="M88 119 a14 14 90 0 1 14 14 V144 h-54 V133 a14 14 90 0 1 14 -14" fill="#92c5de" stroke="#92c5de" stroke-width="0"/>
		<path d="M102 144 v11 a14 14 90 0 1 -14 14 H62 a14 14 90 0 1 -14 -14 V144 H54" fill="#d1e5f0" stroke="#d1e5f0" stroke-width="0"/>
		<rect x="48" y="119" width="54" height="50" fill="none" rx="14" stroke="#4393c3" stroke-width="2"/>
		<line x1="48" y1="144" x2="102" y2="144" stroke="#4393c3" stroke-width="1"/>
		<text x="55" y="136.75" fill="#000" font-family="Verdana" font-size="12">AVOIR</text>
	</g>
</g>

<!-- Association JOUER -->
<g>
	<line x1="75" y1="296" x2="201" y2="144" stroke="#4393c3" stroke-width="2"/>
	<text x="146" y="227.24" fill="#b2182b" font-family="Verdana" font-size="12">1,N</text>
	<line x1="303" y1="296" x2="201" y2="144" stroke="#4393c3" stroke-width="2"/>
	<text x="268.64" y="237" fill="#b2182b" font-family="Verdana" font-size="12">0,N</text>
	<g>
		<path d="M215 110 a14 14 90 0 1 14 14 V135 h-56 V124 a14 14 90 0 1 14 -14" fill="#92c5de" stroke="#92c5de" stroke-width="0"/>
		<path d="M229 135 v29 a14 14 90 0 1 -14 14 H187 a14 14 90 0 1 -14 -14 V135 H56" fill="#d1e5f0" stroke="#d1e5f0" stroke-width="0"/>
		<rect x="173" y="110" width="56" height="68" fill="none" rx="14" stroke="#4393c3" stroke-width="2"/>
		<line x1="173" y1="135" x2="229" y2="135" stroke="#4393c3" stroke-width="1"/>
		<text x="181" y="127.75" fill="#000" font-family="Verdana" font-size="12">JOUER</text>
		<text x="180" y="152.8" fill="#000" font-family="Verdana" font-size="12">team</text>
		<text x="180" y="169.8" fill="#000" font-family="Verdana" font-size="12">status</text>
	</g>
</g>

<!-- Association MAITRISER -->
<g>
	<line x1="201" y1="51" x2="303" y2="144" stroke="#4393c3" stroke-width="2"/>
	<text x="232" y="73.32" fill="#b2182b" font-family="Verdana" font-size="12">0,N</text>
	<line x1="303" y1="296" x2="303" y2="144" stroke="#4393c3" stroke-width="2"/>
	<text x="308" y="237" fill="#b2182b" font-family="Verdana" font-size="12">0,N</text>
	<g>
		<path d="M331 119 a14 14 90 0 1 14 14 V144 h-84 V133 a14 14 90 0 1 14 -14" fill="#92c5de" stroke="#92c5de" stroke-width="0"/>
		<path d="M345 144 v11 a14 14 90 0 1 -14 14 H275 a14 14 90 0 1 -14 -14 V144 H84" fill="#d1e5f0" stroke="#d1e5f0" stroke-width="0"/>
		<rect x="261" y="119" width="84" height="50" fill="none" rx="14" stroke="#4393c3" stroke-width="2"/>
		<line x1="261" y1="144" x2="345" y2="144" stroke="#4393c3" stroke-width="1"/>
		<text x="269" y="136.75" fill="#000" font-family="Verdana" font-size="12">MAITRISER</text>
		<text x="268" y="161.8" fill="#000" font-family="Verdana" font-size="12">rating</text>
	</g>
</g>

<!-- Association AVOIR -->
<g>
	<line x1="472" y1="51" x2="472" y2="144" stroke="#4393c3" stroke-width="2"/>
	<text x="477" y="110" fill="#b2182b" font-family="Verdana" font-size="12">0,1</text>
	<path d="M303 296 C289.04 255.67 345.37 205.01 472 144" fill="none" stroke="#4393c3" stroke-width="2"/>
	<text x="344" y="234.46" fill="#b2182b" font-family="Verdana" font-size="12">0,1</text>
	<g>
		<path d="M485 119 a14 14 90 0 1 14 14 V144 h-54 V133 a14 14 90 0 1 14 -14" fill="#92c5de" stroke="#92c5de" stroke-width="0"/>
		<path d="M499 144 v11 a14 14 90 0 1 -14 14 H459 a14 14 90 0 1 -14 -14 V144 H54" fill="#d1e5f0" stroke="#d1e5f0" stroke-width="0"/>
		<rect x="445" y="119" width="54" height="50" fill="none" rx="14" stroke="#4393c3" stroke-width="2"/>
		<line x1="445" y1="144" x2="499" y2="144" stroke="#4393c3" stroke-width="1"/>
		<text x="452" y="136.75" fill="#000" font-family="Verdana" font-size="12">AVOIR</text>
	</g>
</g>

<!-- Association CREER -->
<g>
	<line x1="75" y1="296" x2="201" y2="296" stroke="#4393c3" stroke-width="2"/>
	<text x="146" y="313" fill="#b2182b" font-family="Verdana" font-size="12">1,1</text>
	<line x1="303" y1="296" x2="201" y2="296" stroke="#4393c3" stroke-width="2"/>
	<text x="240" y="313" fill="#b2182b" font-family="Verdana" font-size="12">0,N</text>
	<g>
		<path d="M215 271 a14 14 90 0 1 14 14 V296 h-56 V285 a14 14 90 0 1 14 -14" fill="#92c5de" stroke="#92c5de" stroke-width="0"/>
		<path d="M229 296 v11 a14 14 90 0 1 -14 14 H187 a14 14 90 0 1 -14 -14 V296 H56" fill="#d1e5f0" stroke="#d1e5f0" stroke-width="0"/>
		<rect x="173" y="271" width="56" height="50" fill="none" rx="14" stroke="#4393c3" stroke-width="2"/>
		<line x1="173" y1="296" x2="229" y2="296" stroke="#4393c3" stroke-width="1"/>
		<text x="181" y="288.75" fill="#000" font-family="Verdana" font-size="12">CREER</text>
	</g>
</g>

<!-- Association AJOUTER_EN_AMI -->
<g>
	<path d="M303 296 C316 262.67 372.33 262.67 472 296" fill="none" stroke="#4393c3" stroke-width="2"/>
	<text x="344" y="289" fill="#b2182b" font-family="Verdana" font-size="12">0,N</text>
	<path d="M303 296 C316 329.33 372.33 329.33 472 296" fill="none" stroke="#4393c3" stroke-width="2"/>
	<text x="344" y="312" fill="#b2182b" font-family="Verdana" font-size="12">0,N</text>
	<g>
		<path d="M521 271 a14 14 90 0 1 14 14 V296 h-126 V285 a14 14 90 0 1 14 -14" fill="#92c5de" stroke="#92c5de" stroke-width="0"/>
		<path d="M535 296 v11 a14 14 90 0 1 -14 14 H423 a14 14 90 0 1 -14 -14 V296 H126" fill="#d1e5f0" stroke="#d1e5f0" stroke-width="0"/>
		<rect x="409" y="271" width="126" height="50" fill="none" rx="14" stroke="#4393c3" stroke-width="2"/>
		<line x1="409" y1="296" x2="535" y2="296" stroke="#4393c3" stroke-width="1"/>
		<text x="417" y="288.75" fill="#000" font-family="Verdana" font-size="12">AJOUTER_EN_AMI</text>
		<text x="416" y="313.8" fill="#000" font-family="Verdana" font-size="12">status</text>
	</g>
</g>

<!-- Association DISCUTER -->
<g>
	<line x1="75" y1="296" x2="201" y2="457" stroke="#4393c3" stroke-width="2"/>
	<text x="146" y="378.19" fill="#b2182b" font-family="Verdana" font-size="12">0,N</text>
	<line x1="303" y1="296" x2="201" y2="457" stroke="#4393c3" stroke-width="2"/>
	<text x="270.81" y="364" fill="#b2182b" font-family="Verdana" font-size="12">0,N</text>
	<g>
		<path d="M226 423 a14 14 90 0 1 14 14 V448 h-78 V437 a14 14 90 0 1 14 -14" fill="#92c5de" stroke="#92c5de" stroke-width="0"/>
		<path d="M240 448 v29 a14 14 90 0 1 -14 14 H176 a14 14 90 0 1 -14 -14 V448 H78" fill="#d1e5f0" stroke="#d1e5f0" stroke-width="0"/>
		<rect x="162" y="423" width="78" height="68" fill="none" rx="14" stroke="#4393c3" stroke-width="2"/>
		<line x1="162" y1="448" x2="240" y2="448" stroke="#4393c3" stroke-width="1"/>
		<text x="169" y="440.75" fill="#000" font-family="Verdana" font-size="12">DISCUTER</text>
		<text x="169" y="465.8" fill="#000" font-family="Verdana" font-size="12">message</text>
		<text x="169" y="482.8" fill="#000" font-family="Verdana" font-size="12">date</text>
	</g>
</g>

<!-- Entity SPORT -->
<g>
	<g>
		<rect x="175" y="17" width="52" height="25" fill="#f4a582" stroke="#f4a582" stroke-width="0" opacity="1"/>
		<rect x="175" y="42" width="52" height="43" fill="#fddbc7" stroke="#fddbc7" stroke-width="0" opacity="1"/>
		<rect x="175" y="17" width="52" height="68" fill="none" stroke="#d6604d" stroke-width="2" opacity="1"/>
		<line x1="175" y1="42" x2="227" y2="42" stroke="#d6604d" stroke-width="1"/>
	</g>
	<text x="180" y="34.75" fill="#000" font-family="Verdana" font-size="12">SPORT</text>
	<text x="180" y="59.8" fill="#000" font-family="Verdana" font-size="12">ref</text>
	<line x1="180" y1="62" x2="197" y2="62" stroke="#000" stroke-width="1"/>
	<text x="180" y="76.8" fill="#000" font-family="Verdana" font-size="12">name</text>
</g>

<!-- Entity IMAGE -->
<g>
	<g>
		<rect x="446" y="9" width="52" height="25" fill="#f4a582" stroke="#f4a582" stroke-width="0" opacity="1"/>
		<rect x="446" y="34" width="52" height="59" fill="#fddbc7" stroke="#fddbc7" stroke-width="0" opacity="1"/>
		<rect x="446" y="9" width="52" height="84" fill="none" stroke="#d6604d" stroke-width="2" opacity="1"/>
		<line x1="446" y1="34" x2="498" y2="34" stroke="#d6604d" stroke-width="1"/>
	</g>
	<text x="452" y="26.75" fill="#000" font-family="Verdana" font-size="12">IMAGE</text>
	<text x="451" y="51.8" fill="#000" font-family="Verdana" font-size="12">ref</text>
	<line x1="451" y1="54" x2="468" y2="54" stroke="#000" stroke-width="1"/>
	<text x="451" y="68.8" fill="#000" font-family="Verdana" font-size="12">title</text>
	<text x="451" y="85.8" fill="#000" font-family="Verdana" font-size="12">url</text>
</g>

<!-- Entity EVENT -->
<g>
	<g>
		<rect x="9" y="194" width="132" height="25" fill="#f4a582" stroke="#f4a582" stroke-width="0" opacity="1"/>
		<rect x="9" y="219" width="132" height="179" fill="#fddbc7" stroke="#fddbc7" stroke-width="0" opacity="1"/>
		<rect x="9" y="194" width="132" height="204" fill="none" stroke="#d6604d" stroke-width="2" opacity="1"/>
		<line x1="9" y1="219" x2="141" y2="219" stroke="#d6604d" stroke-width="1"/>
	</g>
	<text x="55" y="211.75" fill="#000" font-family="Verdana" font-size="12">EVENT</text>
	<text x="14" y="236.8" fill="#000" font-family="Verdana" font-size="12">ref</text>
	<line x1="14" y1="239" x2="31" y2="239" stroke="#000" stroke-width="1"/>
	<text x="14" y="253.8" fill="#000" font-family="Verdana" font-size="12">date</text>
	<text x="14" y="270.8" fill="#000" font-family="Verdana" font-size="12">location</text>
	<text x="14" y="287.8" fill="#000" font-family="Verdana" font-size="12">duration</text>
	<text x="14" y="304.8" fill="#000" font-family="Verdana" font-size="12">nb_team</text>
	<text x="14" y="321.8" fill="#000" font-family="Verdana" font-size="12">nb_max_participant</text>
	<text x="14" y="338.8" fill="#000" font-family="Verdana" font-size="12">status</text>
	<text x="14" y="355.8" fill="#000" font-family="Verdana" font-size="12">winner_team</text>
	<text x="14" y="372.8" fill="#000" font-family="Verdana" font-size="12">score_team_1</text>
	<text x="14" y="389.8" fill="#000" font-family="Verdana" font-size="12">score_team_2</text>
</g>

<!-- Entity USER -->
<g>
	<g>
		<rect x="267" y="245" width="72" height="25" fill="#f4a582" stroke="#f4a582" stroke-width="0" opacity="1"/>
		<rect x="267" y="270" width="72" height="77" fill="#fddbc7" stroke="#fddbc7" stroke-width="0" opacity="1"/>
		<rect x="267" y="245" width="72" height="102" fill="none" stroke="#d6604d" stroke-width="2" opacity="1"/>
		<line x1="267" y1="270" x2="339" y2="270" stroke="#d6604d" stroke-width="1"/>
	</g>
	<text x="286" y="262.75" fill="#000" font-family="Verdana" font-size="12">USER</text>
	<text x="272" y="287.8" fill="#000" font-family="Verdana" font-size="12">ref</text>
	<line x1="272" y1="290" x2="289" y2="290" stroke="#000" stroke-width="1"/>
	<text x="272" y="304.8" fill="#000" font-family="Verdana" font-size="12">username</text>
	<text x="272" y="321.8" fill="#000" font-family="Verdana" font-size="12">email</text>
	<text x="272" y="338.8" fill="#000" font-family="Verdana" font-size="12">password</text>
</g>
</svg>